<svg xmlns="http://www.w3.org/2000/svg" xmlns:xlink="http://www.w3.org/1999/xlink" version="1.1" x="0px" y="0px" viewBox="0 0 100 125" style="enable-background:new 0 0 100 100;" xml:space="preserve"><style type="text/css">
	.st0{fill:#231F20;}
</style><path class="st0" d="M8,55.5c0.1,0.5,0.4,1,0.9,1.2l1.6,0.5c6.3,2.1,10.9,3.6,16.8,6.9l7.9,27.6c0.2,0.7,0.8,1.1,1.5,1  c0.1,0,0.1,0,0.2,0c0.2-0.1,1.2-0.6,1.4-0.9c2.7-3.4,5-6.2,7.1-9c1.8-2.3,3.5-4.5,5.4-6.9c3.8,2.9,7.7,5.5,12.5,5.1  c0.4-0.1,0.8-0.3,1-0.7c3.6-6.6,10.6-26.1,14.5-37.1c7.4-21,8.8-27.1,9-29.1c0.1-0.8-0.2-1.5-0.2-1.7c-0.3-0.6-1-0.8-2.3-0.3  c-10.2,3.8-12.8,5.3-18.9,8.7c-1.5,0.9-3.3,1.9-5.5,3.1C45.1,32.7,26,43.7,8.7,54.2C8.2,54.4,8,55,8,55.5z M40.2,65.9  c4.9-5.4,9.2-10.3,13.3-15.1c10-11.5,18.7-21.4,31.3-33.4c-3.7,11.8-17.1,50.3-22.4,60.9c-4.1,0-7.7-2.9-11.5-6  C47.6,69.6,44.2,66.8,40.2,65.9z M38.1,87.8l0.1-1.2c0.3-7.9,0.6-13.5,1.2-18.1c3.3,0.7,6.4,3.1,9.5,5.7c-1.9,2.4-3.7,4.6-5.4,6.9  C41.7,83.2,40,85.3,38.1,87.8z M30,63.4c4.9-5,11.3-10.5,19.6-17c7.3-5.6,12.4-10.3,17.2-14.7C61.6,37.4,56.7,43,51.5,49  c-4.6,5.3-9.5,10.8-15.1,17c-0.4,0.4-0.6,10.5-0.9,16.6L30,63.4z M12.7,55c16.6-10,34.6-20.3,49.7-28.7c2.2-1.2,4-2.2,5.5-3.1  c4-2.2,6.3-3.6,10.2-5.2c-4.3,3.5-7.9,6.9-11.7,10.4c-5.2,4.8-10.6,9.8-18.5,15.9c-8.3,6.5-14.8,12.1-19.7,17.1  C22.7,58.3,18.1,56.8,12.7,55z"/><text x="0" y="115" fill="#000000" font-size="5px" font-weight="bold" font-family="'Helvetica Neue', Helvetica, Arial-Unicode, Arial, Sans-serif">Created by ivisual</text><text x="0" y="120" fill="#000000" font-size="5px" font-weight="bold" font-family="'Helvetica Neue', Helvetica, Arial-Unicode, Arial, Sans-serif">from the Noun Project</text></svg>