<svg xmlns="http://www.w3.org/2000/svg" xmlns:xlink="http://www.w3.org/1999/xlink" version="1.1" x="0px" y="0px" viewBox="0 0 100 125" enable-background="new 0 0 100 100" xml:space="preserve"><path fill="#000000" d="M89.3,22.1h-2.2V21c0-2.2-1.8-4-4-4H56.4c-2.6,0-4.8,1.2-6.3,3c-1.5-1.8-3.8-3-6.4-3H17c-2.2,0-4,1.8-4,4  v1.1h-2.2c-2.8,0-5.1,2.2-5.1,5v45c0,2.8,2.3,5,5.1,5h30.5c0.7,0,1.2,0.4,1.4,0.9c1.1,3,4.1,5,7.3,5c3.2,0,6.2-2,7.3-5  c0.2-0.6,0.8-0.9,1.4-0.9h30.4c2.8,0,5.1-2.2,5.1-5v-45C94.3,24.3,92.1,22.1,89.3,22.1z M16.5,21c0-0.2,0.2-0.4,0.5-0.4h26.7  c1.4,0,2.7,0.6,3.5,1.6c0.7,0.8,1.1,1.7,1.1,2.8V25v44.2C46.1,67.8,43.6,67,41,67H17c-0.3,0-0.5-0.2-0.5-0.4V21z M56.4,20.6H83  c0.3,0,0.5,0.2,0.5,0.4v45.6c0,0.2-0.2,0.4-0.5,0.4H59c-2.6,0-5.1,0.7-7.2,2.1V24.9c0-1.1,0.4-2,1.1-2.8  C53.8,21.2,55,20.6,56.4,20.6z M90.8,72.1c0,0.8-0.7,1.5-1.6,1.5H58.8c-2.1,0-4,1.3-4.7,3.2c-0.6,1.6-2.2,2.7-4,2.7  c-1.8,0-3.4-1.1-4-2.7c-0.7-1.9-2.6-3.2-4.7-3.2H10.7c-0.9,0-1.6-0.7-1.6-1.5v-45c0-0.8,0.7-1.5,1.6-1.5H13v41c0,2.2,1.8,4,4,4h24  c2.6,0,5.1,1,6.8,2.8l0.9,0.9c0.1,0.1,0.2,0.2,0.3,0.3c0,0,0.1,0.1,0.1,0.1c0,0,0.1,0,0.1,0.1c0,0,0,0,0,0c0.1,0,0.2,0.1,0.3,0.1  c0.1,0,0.2,0,0.4,0c0.3,0,0.7-0.1,1-0.3c0,0,0.1-0.1,0.1-0.1c0,0,0.1-0.1,0.1-0.1l0,0l1.1-1.1c1.8-1.7,4.1-2.6,6.6-2.6h24  c2.2,0,4-1.8,4-4v-41h2.2c0.9,0,1.6,0.7,1.6,1.5V72.1z"/><text x="0" y="115" fill="#000000" font-size="5px" font-weight="bold" font-family="'Helvetica Neue', Helvetica, Arial-Unicode, Arial, Sans-serif">Created by HeadsOfBirds</text><text x="0" y="120" fill="#000000" font-size="5px" font-weight="bold" font-family="'Helvetica Neue', Helvetica, Arial-Unicode, Arial, Sans-serif">from the Noun Project</text></svg>