<svg xmlns="http://www.w3.org/2000/svg" xmlns:xlink="http://www.w3.org/1999/xlink" xml:space="preserve" version="1.1" style="shape-rendering:geometricPrecision;text-rendering:geometricPrecision;image-rendering:optimizeQuality;" viewBox="0 0 847 1058.75" x="0px" y="0px" fill-rule="evenodd" clip-rule="evenodd"><defs><style type="text/css">
   
    .fil0 {fill:black}
   
  </style></defs><g><path class="fil0" d="M354 9c46,0 93,0 139,0 21,0 37,17 37,37 0,90 0,180 0,270 90,0 181,0 271,0 20,0 37,17 37,38 0,46 0,93 0,139 0,21 -17,37 -37,37 -90,0 -181,0 -271,0 0,90 0,181 0,271 0,20 -16,37 -37,37 -46,0 -93,0 -139,0 -21,0 -38,-17 -38,-37 0,-90 0,-181 0,-271 -90,0 -180,0 -270,0 -20,0 -37,-16 -37,-37 0,-46 0,-93 0,-139 0,-21 17,-38 37,-38 90,0 180,0 270,0 0,-90 0,-180 0,-270 0,-20 17,-37 38,-37z"/></g><text x="0" y="862" fill="#000000" font-size="5px" font-weight="bold" font-family="'Helvetica Neue', Helvetica, Arial-Unicode, Arial, Sans-serif">Created by Bismillah</text><text x="0" y="867" fill="#000000" font-size="5px" font-weight="bold" font-family="'Helvetica Neue', Helvetica, Arial-Unicode, Arial, Sans-serif">from the Noun Project</text></svg>