<svg xmlns="http://www.w3.org/2000/svg" xmlns:xlink="http://www.w3.org/1999/xlink" version="1.1" x="0px" y="0px" viewBox="0 0 100 125" style="enable-background:new 0 0 100 100;" xml:space="preserve"><g><path d="M90.02,23.53H79.554c-0.282-1.447-1.556-2.543-3.084-2.543H63.327c-1.528,0-2.803,1.096-3.085,2.543h-4.929H44.688h-4.929   c-0.282-1.447-1.556-2.543-3.084-2.543H23.532c-1.528,0-2.803,1.096-3.085,2.543H9.98c-2.819,0-5.113,2.478-5.113,5.525v44.433   c0,3.046,2.294,5.525,5.113,5.525h34.708h10.625H90.02c2.819,0,5.113-2.478,5.113-5.525V29.056   C95.133,26.009,92.839,23.53,90.02,23.53z M62.422,24.133c0-0.499,0.406-0.905,0.905-0.905h13.143c0.498,0,0.904,0.406,0.904,0.905   v1.037c0,0.498-0.406,0.904-0.904,0.904H63.327c-0.499,0-0.905-0.406-0.905-0.904V24.133z M22.627,24.133   c0-0.499,0.406-0.905,0.905-0.905h13.143c0.498,0,0.904,0.406,0.904,0.905v1.037c0,0.498-0.406,0.904-0.904,0.904H23.532   c-0.499,0-0.905-0.406-0.905-0.904V24.133z M92.892,73.488c0,1.81-1.288,3.283-2.872,3.283H55.312H44.688H9.98   c-1.584,0-2.872-1.473-2.872-3.283V29.056c0-1.811,1.288-3.284,2.872-3.284h10.467c0.282,1.447,1.557,2.544,3.085,2.544h13.143   c1.528,0,2.803-1.097,3.084-2.544h4.929h10.625h4.929c0.282,1.447,1.557,2.544,3.086,2.544h13.143c1.529,0,2.802-1.097,3.085-2.544   H90.02c1.584,0,2.872,1.473,2.872,3.284V73.488z"/><path d="M87.316,31.735H55.312H44.688H12.684c-0.619,0-1.121,0.502-1.121,1.121v39.496c0,0.619,0.501,1.121,1.121,1.121h32.004   h10.625h32.004c0.619,0,1.121-0.502,1.121-1.121V32.856C88.437,32.237,87.935,31.735,87.316,31.735z M86.195,71.231H55.312H44.688   H13.805V33.977h30.883h10.625h30.883V71.231z"/><path d="M36.768,39.248H17.965c-0.619,0-1.121,0.502-1.121,1.121v18.952v5.517c0,0.619,0.501,1.121,1.121,1.121h18.803   c0.619,0,1.121-0.502,1.121-1.121v-5.517V40.369C37.888,39.75,37.387,39.248,36.768,39.248z M35.647,41.49v13.04   c-0.543-0.458-1.152-0.835-1.824-1.088l-1.776-0.67c0.41-0.91,0.643-1.952,0.643-3.058c0-3.543-2.388-6.426-5.322-6.426   c-2.935,0-5.323,2.883-5.323,6.426c0,1.106,0.233,2.148,0.643,3.058l-1.776,0.67c-0.672,0.254-1.281,0.63-1.824,1.089V41.49H35.647   z M24.285,49.712c0-2.308,1.382-4.185,3.082-4.185c1.698,0,3.081,1.877,3.081,4.185c0,2.307-1.382,4.184-3.081,4.184   C25.667,53.896,24.285,52.019,24.285,49.712z M19.085,59.321c0-0.873,0.29-1.739,0.816-2.436c0.462-0.611,1.083-1.077,1.8-1.347   l2.287-0.863c0.92,0.914,2.096,1.463,3.377,1.463c1.281,0,2.457-0.549,3.377-1.463l2.288,0.863c0.715,0.27,1.337,0.736,1.799,1.347   c0.526,0.698,0.816,1.563,0.816,2.437v4.396H19.085V59.321z"/><path d="M48.589,40.369c0,0.619,0.501,1.121,1.121,1.121h23.954c0.619,0,1.121-0.502,1.121-1.121c0-0.619-0.501-1.121-1.121-1.121   H49.71C49.091,39.248,48.589,39.75,48.589,40.369z"/><path d="M41.185,49.249c0,0.619,0.501,1.121,1.121,1.121H81.07c0.619,0,1.121-0.502,1.121-1.121c0-0.619-0.501-1.121-1.121-1.121   H42.305C41.686,48.129,41.185,48.631,41.185,49.249z"/><path d="M73.664,57.009H49.71c-0.619,0-1.121,0.502-1.121,1.121c0,0.619,0.501,1.121,1.121,1.121h23.954   c0.619,0,1.121-0.502,1.121-1.121C74.785,57.511,74.284,57.009,73.664,57.009z"/></g><text x="0" y="115" fill="#000000" font-size="5px" font-weight="bold" font-family="'Helvetica Neue', Helvetica, Arial-Unicode, Arial, Sans-serif">Created by Jeevan Kumar</text><text x="0" y="120" fill="#000000" font-size="5px" font-weight="bold" font-family="'Helvetica Neue', Helvetica, Arial-Unicode, Arial, Sans-serif">from the Noun Project</text></svg>