<svg xmlns:dc="http://purl.org/dc/elements/1.1/" xmlns:cc="http://creativecommons.org/ns#" xmlns:rdf="http://www.w3.org/1999/02/22-rdf-syntax-ns#" xmlns:svg="http://www.w3.org/2000/svg" xmlns="http://www.w3.org/2000/svg" xmlns:sodipodi="http://sodipodi.sourceforge.net/DTD/sodipodi-0.dtd" xmlns:inkscape="http://www.inkscape.org/namespaces/inkscape" version="1.1" x="0px" y="0px" viewBox="0 0 100 125"><g transform="translate(0,-952.36218)"><g transform="matrix(-1,0,0,1,100,1.9999885)"><path style="text-indent:0;text-transform:none;direction:ltr;block-progression:tb;baseline-shift:baseline;color:#000000;enable-background:accumulate;" d="M 7.8125,14 C 6.8293322,14.092661 5.9957417,15.012485 6,16 l 0,46 c 1.044e-4,1.047169 0.952831,1.999896 2,2 l 33,0 0,7 -6,0 c -0.62861,-0.0049 -1.251745,0.306679 -1.625,0.8125 l -8,11 c -0.438139,0.593967 -0.507566,1.438264 -0.172339,2.095825 C 25.537888,85.565885 26.261941,86.005664 27,86 c 15.333333,0 30.666667,0 46,0 0.738059,0.0057 1.462112,-0.434115 1.797339,-1.091675 0.335227,-0.657561 0.2658,-1.501858 -0.172339,-2.095825 l -8,-11 C 66.290341,71.354331 65.752632,71.050408 65.1875,71 63.142597,70.999064 61.058264,71 59,71 l 0,-7 33,0 c 1.047169,-1.04e-4 1.999896,-0.952831 2,-2 l 0,-18 c 0.01492,-1.056613 -0.943281,-2.028448 -2,-2.028448 -1.056719,0 -2.014924,0.971835 -2,2.028448 l 0,16 c -26.666667,0 -53.333333,0 -80,0 l 0,-42 80,0 0,18 c -0.01492,1.056613 0.943281,2.028448 2,2.028448 1.056719,0 2.014924,-0.971835 2,-2.028448 L 94,16 C 93.999896,14.952831 93.047169,14.000104 92,14 63.9413,14 35.858027,14 7.8125,14 z M 45,64 l 10,0 0,10 -10,0 z m -9,11 5,0 0,1 c 1.05e-4,1.047169 0.952831,1.999895 2,2 l 14,0 c 1.047169,-1.05e-4 1.999895,-0.952831 2,-2 l 0,-1 5,0 5.09375,7 c -12.729167,0 -25.458333,0 -38.1875,0 z" transform="matrix(-1,0,0,1,100,950.36219)" fill="#000000" fill-opacity="1" stroke="none" marker="none" visibility="visible" display="inline" overflow="visible"/></g></g><text x="0" y="115" fill="#000000" font-size="5px" font-weight="bold" font-family="'Helvetica Neue', Helvetica, Arial-Unicode, Arial, Sans-serif">Created by vigorn</text><text x="0" y="120" fill="#000000" font-size="5px" font-weight="bold" font-family="'Helvetica Neue', Helvetica, Arial-Unicode, Arial, Sans-serif">from the Noun Project</text></svg>