<svg xmlns="http://www.w3.org/2000/svg" data-name="Layer 1" viewBox="0 0 100 125" x="0px" y="0px"><title>08</title><g data-name="Group"><path data-name="Path" d="M31.5,21.4a3.1,3.1,0,0,0-3,3V75.6a3.1,3.1,0,0,0,3,3,3,3,0,0,0,3-3V24.4A3,3,0,0,0,31.5,21.4Z"/><path data-name="Path" d="M19.2,33.1a3.1,3.1,0,0,0-3,3V63.9a3.1,3.1,0,0,0,3,3,3,3,0,0,0,3-3V36.1A3,3,0,0,0,19.2,33.1Z"/><path data-name="Path" d="M71.5,60.3V38.7a3.1,3.1,0,0,0-3-3,3,3,0,0,0-3,3V60.3a3,3,0,0,0,3,3A3.1,3.1,0,0,0,71.5,60.3Z"/><path data-name="Path" d="M56.2,76.9a3.1,3.1,0,0,0,3-3V26.1a3.1,3.1,0,0,0-3-3,3,3,0,0,0-3,3V73.9A3,3,0,0,0,56.2,76.9Z"/><path data-name="Path" d="M43.8,15.3a3,3,0,0,0-3,3V81.7a3,3,0,0,0,3,3,2.9,2.9,0,0,0,3-3V18.3A2.9,2.9,0,0,0,43.8,15.3Z"/><path data-name="Path" d="M80.8,27.1a3,3,0,0,0-3,3V69.9a3,3,0,0,0,3,3,3.1,3.1,0,0,0,3-3V30.1A3.1,3.1,0,0,0,80.8,27.1Z"/></g><text x="0" y="115" fill="#000000" font-size="5px" font-weight="bold" font-family="'Helvetica Neue', Helvetica, Arial-Unicode, Arial, Sans-serif">Created by Naveen</text><text x="0" y="120" fill="#000000" font-size="5px" font-weight="bold" font-family="'Helvetica Neue', Helvetica, Arial-Unicode, Arial, Sans-serif">from the Noun Project</text></svg>